<svg xmlns="http://www.w3.org/2000/svg" xmlns:xlink="http://www.w3.org/1999/xlink" viewBox="0 0 2088.81 786.78"><defs><style>.cls-1{fill:#248133;}.cls-2{fill:url(#linear-gradient);}.cls-3{fill:url(#linear-gradient-13);}.cls-4{fill:url(#linear-gradient-14);}.cls-5{fill:url(#linear-gradient-15);}.cls-6{fill:url(#linear-gradient-16);}.cls-7{fill:url(#linear-gradient-17);}.cls-8{fill:url(#linear-gradient-18);}.cls-9{fill:url(#linear-gradient-19);}.cls-10{fill:url(#linear-gradient-20);}.cls-11{fill:url(#linear-gradient-21);}</style><linearGradient id="linear-gradient" x1="79.68" y1="357.98" x2="1944.48" y2="357.98" gradientTransform="translate(144.32 57.02)" gradientUnits="userSpaceOnUse"><stop offset="0" stop-color="#234132"/><stop offset="0.02" stop-color="#234432"/><stop offset="0.33" stop-color="#237132"/><stop offset="0.61" stop-color="#239232"/><stop offset="0.84" stop-color="#23a632"/><stop offset="1" stop-color="#23ad32"/></linearGradient><linearGradient id="linear-gradient-13" x1="690.32" y1="393.4" x2="749.28" y2="393.4" gradientUnits="userSpaceOnUse"><stop offset="0" stop-color="#fcffff"/><stop offset="0.47" stop-color="#fadd1c"/><stop offset="1" stop-color="#f7bf4d"/></linearGradient><linearGradient id="linear-gradient-14" x1="0" y1="250.35" x2="116.34" y2="250.35" xlink:href="#linear-gradient-13"/><linearGradient id="linear-gradient-15" x1="0" y1="536.35" x2="116.24" y2="536.35" xlink:href="#linear-gradient-13"/><linearGradient id="linear-gradient-16" x1="137.96" y1="729.53" x2="362.98" y2="729.53" xlink:href="#linear-gradient-13"/><linearGradient id="linear-gradient-17" x1="137.84" y1="57.19" x2="363.04" y2="57.19" xlink:href="#linear-gradient-13"/><linearGradient id="linear-gradient-18" x1="423.9" y1="737.66" x2="649.59" y2="737.66" xlink:href="#linear-gradient-13"/><linearGradient id="linear-gradient-19" x1="423.92" y1="49.16" x2="649.78" y2="49.16" xlink:href="#linear-gradient-13"/><linearGradient id="linear-gradient-20" x1="690.32" y1="180.42" x2="749.28" y2="180.42" xlink:href="#linear-gradient-13"/><linearGradient id="linear-gradient-21" x1="690.67" y1="616.52" x2="738.6" y2="616.52" xlink:href="#linear-gradient-13"/></defs><g id="Layer_2" data-name="Layer 2"><g id="Layer_3" data-name="Layer 3"><path class="cls-1" d="M2088.81,499.86c-14.5,0-29-.07-43.49,0-3,0-4.08-.72-4.65-4.06-2.38-13.79-2.93-27.64-2.86-41.58.11-21,.2-42-.06-63-.09-7.74-1.21-15.42-5.34-22.37a18,18,0,0,0-13.07-8.89c-15.57-2.42-28.73,4-41.27,12.15-2.09,1.36-1.24,3.64-1.25,5.54,0,38.65-.15,77.3.12,116,0,5.43-1.61,6.46-6.59,6.32-12.15-.36-24.32-.21-36.49,0-3.17,0-4.24-.76-4.24-4.14q.15-119.46,0-238.91c0-2.51.3-3.86,3.34-4.09,10.24-.75,20.44-1.86,30.66-2.8,1.33-.12,2.68,0,4-.09,9.15-.93,9.15-.94,9.15,8.44q0,39.74,0,79.47v6.07c9.4-6.79,18.35-13,28.59-16.76,17.72-6.43,35.57-7.8,52.63,1.93,13.36,7.61,20,20.32,23.65,34.68a105.45,105.45,0,0,1,3.17,26.53c-.13,23.32,0,46.65,0,70a215.54,215.54,0,0,0,3.16,36.58c.07.4.56.72.86,1.07Z"/><path class="cls-1" d="M1587.17,340.18c-1.37-12.15,6-14,15.06-14.14a151.46,151.46,0,0,0,21.24-2.12c3.45-.54,4.49.7,4.48,4.28-.12,59,1,118-.5,176.9-.94,37.38-21.49,65.17-62.36,73.52-29.4,6-57.77,1.58-84.43-12.73-3.1-1.67-3.62-3.09-2.16-6.36,3.74-8.41,7.08-17,10.39-25.58,1-2.7,2-2.69,4.44-1.43,14.9,7.59,30.59,12.33,47.51,11.31,21.45-1.29,34.88-12.18,39.06-34.44,1.45-7.74.81-15.46.93-24-7.1,4.54-13.59,8.66-20.74,11.47-22.66,8.95-44.73,9.25-65.13-5.81-15.29-11.28-24-27.15-28.56-45.2-8.47-33.88-5.27-66.26,15.9-95,11.91-16.19,28.1-26,48.8-28,19.78-1.88,37.28,2.88,52.71,15.36A38.89,38.89,0,0,0,1587.17,340.18Zm-6.29,71.56c0-13.32-.19-26.65.11-40,.09-4.08-1.3-5.88-5-7-8-2.5-15.88-4.57-24.38-5.08-14.62-.88-27.16,5.31-33.75,18.38-10.21,20.23-10.65,41.37-4.16,62.55,5.31,17.32,18.12,25.94,35.86,25.23,10.33-.41,20-4.08,29.43-8,2.54-1.05,1.89-3.23,1.9-5.11Q1580.9,432.23,1580.88,411.74Z"/><path class="cls-1" d="M240.29,444c18.08,10.07,37.65,15.31,57.73,18.66,11.61,1.93,23.46,2.25,35-.94,9.88-2.75,18.38-7.86,20.85-18.74,2.82-12.4-3-21.27-12.9-28.12-12.55-8.71-27.26-12.46-41.23-17.86-16.92-6.53-34.42-11.8-48.92-23.31-14.14-11.23-22.52-25.41-22.88-44-.38-19,5.62-35.23,19.85-48.06,10.49-9.44,23.14-14.86,36.74-17.67,36.7-7.6,71.55-1.37,104.91,15,3.2,1.57,4.27,3.17,2.41,6.79-4.79,9.35-9.28,18.86-13.61,28.44-1.21,2.68-2.29,2.92-4.76,1.73-15.13-7.29-31-13-47.62-14.6-13.65-1.34-27.77-1.9-40.06,6.86-9.87,7-11.1,20.47-2.69,29.33,8.87,9.35,20.81,12.72,32.19,17.36,16.06,6.56,33.11,10.54,48.49,18.92,13,7.1,24.25,16.15,32.2,28.73,7.83,12.38,9.57,26.24,7.46,40.43-4.91,32.94-27.11,49-57.06,56.86a124,124,0,0,1-36.23,4,199.37,199.37,0,0,1-83.77-22c-2.78-1.42-2.8-2.79-1.53-5.37C230.08,465.7,235.12,454.87,240.29,444Z"/><path class="cls-1" d="M426.9,415.2c-.34-22.51,3.87-41.55,15.59-58.51,13-18.83,31.29-29,53.56-32.87,17.43-3,34.64-2.24,51.27,3.56,26.69,9.29,43.49,28.06,50.71,55.39,6.35,24.05,5.79,47.84-3.53,71-9.82,24.37-27.85,39.87-53.28,46.39-24,6.16-47.52,4.91-70-6.23-23.71-11.74-36.65-31.57-42.22-56.81C427.21,429.18,426.37,421.14,426.9,415.2Zm47-2.29c-.2,6.35,1,12.53,2.07,18.72,3,16.7,13.1,33.49,34.48,34.59,18,.93,31.57-5,38.3-21.58,7.6-18.71,7.73-38,2.11-57.23-4.67-16-14.07-27.19-34.37-27.88-16.67-.57-29.64,5.41-36.81,22.58C475.55,392,474.41,402.38,473.92,412.91Z"/><path class="cls-1" d="M1168.44,499.85c-13.74,0-27.23-.07-40.72,0-4,0-3.17-3.11-3.72-5.11-1.17-4.19-.7-8.76-2.71-13.28-9,7.5-18.6,13.47-29.54,16.8-18.17,5.53-36,5.93-52.48-5.38-12.28-8.42-18.12-20.55-20.49-35a55.64,55.64,0,0,1,3.67-32c7.07-16.13,20.44-24.95,37-29,16.74-4.08,33.7-4,50.67-1.25,2.44.39,5-.16,7.36.83,3.46-19.87-11.69-35.71-30.6-36.85-15.58-1-29.72,2.93-43.24,9.93-3.87,2-5.72,2.42-7.37-2.64-2.69-8.22-6.33-16.15-9.84-24.08-1.22-2.75-.85-4.23,1.78-5.66a122.08,122.08,0,0,1,41-13.4,131.69,131.69,0,0,1,33.19-1c30.18,3.19,55,20.55,60.61,53.61,1.85,10.9,1.89,21.79,1.89,32.74,0,17,.1,34,0,51A217.34,217.34,0,0,0,1168.44,499.85Zm-49.54-59.62v-10c0-7,0-6.95-7.1-7.42-1.15-.07-2.27-.5-3.42-.57-12.3-.8-24.52-.62-35.51,5.89-9.33,5.54-12.5,17.15-8.32,28.44,3.46,9.33,13.42,12.28,22.43,11.88,9.4-.41,17.87-4,26.06-8.52,4-2.21,6.89-4.48,6-9.76C1118.44,447,1118.9,443.55,1118.9,440.23Z"/><path class="cls-1" d="M1434.81,499.85c-14,0-27.51,0-41,0-2,0-2.74-.58-3.1-2.72-.68-4.06-1.66-8.05-2-12.19-.12-1.77-.48-4.57-3.58-2a77.91,77.91,0,0,1-39.84,18.07c-14.46,2.08-28,.3-40.09-8.2-12.52-8.8-18.47-21.31-20.52-36.32a57.37,57.37,0,0,1,2.55-27.26c6.31-17.86,20.12-27.7,37.82-32.17,16.86-4.26,34-4.22,51.17-1.38,1.79.3,3.78-.05,5.4.6,2.57,1,3-.22,3-2.17-.41-18.05-9.59-31.89-30.39-34.31-16.44-1.91-31.36,3-45.66,10.23-3.51,1.78-4.51,1-5.73-2.17-3.37-8.73-6.83-17.42-10.56-26-1-2.22-.41-3.07,1.33-4.08,12.87-7.48,26.82-11.75,41.46-13.92a135.84,135.84,0,0,1,32.19-1.13c30.68,2.78,56,20.08,61.7,52.89a124.57,124.57,0,0,1,1.93,21.72c-.1,22.32-.38,44.65.11,67C1431.26,476.05,1431.79,487.81,1434.81,499.85ZM1384.88,440c0-4.49-.13-9,0-13.46.12-2.84-1-3.58-3.73-3.77-8.75-.61-17.45-1.55-26.22,0-9.28,1.64-18.25,3.77-23.19,12.93-7.28,13.5-.79,31,15.63,32.38,10.38.88,19.33-2.33,28.46-6.28,7-3,10.66-7.41,9.06-15.34C1384.53,444.42,1384.88,442.19,1384.88,440Z"/><path class="cls-1" d="M864.72,499.86c-14,0-27.76,0-41.57,0-1.75,0-2-.82-2.35-2.34a82.93,82.93,0,0,1-2-12.16c-.18-2.34-.65-4.66-4.12-1.86-15.67,12.69-33.51,19.67-53.88,18.26-25.22-1.75-42.58-19.38-46-44.07-1.53-11-.66-21.55,3.66-31.52,7.08-16.33,20.6-25.09,37.38-29.3,18.46-4.63,37-3.3,55.59-.69,2.06.29,2.47.34,2.71-1.7,2.06-17.33-12.22-33.43-29.73-34.74-16.06-1.2-30.68,2.69-44.67,9.88-3.77,1.93-5.67,2.53-7.35-2.53-2.84-8.53-6.64-16.75-10.16-25.05-.9-2.13-.44-3.25,1.55-4.4,12.7-7.33,26.46-11.53,40.84-13.73a130.89,130.89,0,0,1,33.68-1.11C828.59,326,853.41,343.36,859,376a145.5,145.5,0,0,1,2,25.16c-.09,21.49-.22,43,0,64.47A165.48,165.48,0,0,0,864.72,499.86Zm-49.81-59.63v-9c0-7.77,0-7.76-7.54-8.4-.82-.07-1.62-.34-2.44-.44-11-1.36-21.86-.45-32.13,3.62a22.77,22.77,0,0,0-13.67,25.78c2.46,10.84,10.46,17.1,22.4,16.77,9.72-.27,18.59-3.72,27.12-8.38,4.44-2.44,7.19-5,6.35-10.5C814.52,446.61,814.91,443.39,814.91,440.23Z"/><path class="cls-1" d="M1799.81,413.22c.26,14.25,2.72,27.83,11.87,39.45,6.2,7.88,14.58,11.84,24.19,13.16,17.4,2.39,33.45-2.15,48.53-10.61,2.42-1.36,3.52-1.58,4.69,1.41,3.41,8.73,7.06,17.36,10.83,25.94,1.26,2.87.75,4.21-2,5.85-14.91,8.81-31,13.07-48.21,14.59-19.32,1.7-37.54-1.16-54.6-10.19-22.34-11.84-35.42-30.86-40.13-55.38s-3.56-48.82,8-71.55c12.26-24.07,32.53-37.37,58.91-42,25.43-4.47,49.2.19,71.77,12.32,3.64,2,5.45,3.48,3.26,8.06-3.61,7.53-6.39,15.47-9.43,23.26-1.29,3.29-2.33,4.83-6.48,2.55-10.42-5.74-21.44-9.71-33.64-10.5-23-1.48-40.57,11.19-45.44,33.93A77.59,77.59,0,0,0,1799.81,413.22Z"/><path class="cls-1" d="M682.81,374.94c0,39.8-.08,79.61.12,119.41,0,4.67-1.34,5.75-5.8,5.64-12.65-.31-25.32-.22-38,0-3.26,0-4.16-.86-4.16-4.16q.15-119.16,0-238.33c0-3.27.59-4.59,4.18-4.82,9.73-.65,19.42-1.88,29.14-2.69,3.14-.27,6.26-.17,9.39-.92,3.42-.81,5.28.08,5.21,4.48-.27,18.15-.11,36.31-.11,54.46Z"/><path class="cls-1" d="M1252.84,374.93c0,40-.07,79.94.1,119.91,0,4.19-1.13,5.21-5.24,5.12-12.65-.29-25.32-.19-38,0-3.17,0-4.29-.76-4.28-4.13q.13-119.42,0-238.84c0-2.88.72-4,3.77-4.25,9.73-.75,19.43-1.92,29.16-2.71a66.23,66.23,0,0,0,9.39-.94c3.44-.8,5.21.09,5.17,4.46-.25,23.82-.12,47.64-.12,71.45Z"/><path class="cls-1" d="M943.24,350c6.22-7.42,12.23-14,19.43-19.38,13.39-10,28.09-10,43.33-5.58,2.39.7,2.19,2.76,1.82,4.53-2.31,11.24-4.7,22.47-7.1,33.69-.51,2.38-1.2,3.62-4.45,2.73-16-4.34-30.93-2.13-44.76,7.48-2.78,1.93-3.63,3.73-3.62,6.78.05,38.15,0,76.3.13,114.44,0,4.07-.81,5.35-5.1,5.25-12.66-.32-25.33-.24-38,0-3.34.05-4.1-1-4.1-4.18q.15-82,0-163.92c0-3.43,1.18-4.78,4.44-5,9.24-.58,18.46-1.42,27.6-2.92,3.54-.59,6.22-.26,6.79,4.36C940.52,335.3,941.92,342.22,943.24,350Z"/><path class="cls-1" d="M1664.85,478.86c.09-15.66,9-25.65,22.19-28.05,10.28-1.87,19.69-.52,28,5.85,9.33,7.12,10.88,17.14,8.42,27.63-2.4,10.24-10.11,15.88-20,18.34A35.44,35.44,0,0,1,1679,500C1669.06,495.25,1665.1,487.05,1664.85,478.86Z"/><path class="cls-2" d="M2088.81,499.86c-14.5,0-29-.07-43.49,0-3,0-4.08-.72-4.65-4.06-2.38-13.79-2.93-27.64-2.86-41.58.11-21,.2-42-.06-63-.09-7.74-1.21-15.42-5.34-22.37a18,18,0,0,0-13.07-8.89c-15.57-2.42-28.73,4-41.27,12.15-2.09,1.36-1.24,3.64-1.25,5.54,0,38.65-.15,77.3.12,116,0,5.43-1.61,6.46-6.59,6.32-12.15-.36-24.32-.21-36.49,0-3.17,0-4.24-.76-4.24-4.14q.15-119.46,0-238.91c0-2.51.3-3.86,3.34-4.09,10.24-.75,20.44-1.86,30.66-2.8,1.33-.12,2.68,0,4-.09,9.15-.93,9.15-.94,9.15,8.44q0,39.74,0,79.47v6.07c9.4-6.79,18.35-13,28.59-16.76,17.72-6.43,35.57-7.8,52.63,1.93,13.36,7.61,20,20.32,23.65,34.68a105.45,105.45,0,0,1,3.17,26.53c-.13,23.32,0,46.65,0,70a215.54,215.54,0,0,0,3.16,36.58c.07.4.56.72.86,1.07Z"/><path class="cls-2" d="M1587.17,340.18c-1.37-12.15,6-14,15.06-14.14a151.46,151.46,0,0,0,21.24-2.12c3.45-.54,4.49.7,4.48,4.28-.12,59,1,118-.5,176.9-.94,37.38-21.49,65.17-62.36,73.52-29.4,6-57.77,1.58-84.43-12.73-3.1-1.67-3.62-3.09-2.16-6.36,3.74-8.41,7.08-17,10.39-25.58,1-2.7,2-2.69,4.44-1.43,14.9,7.59,30.59,12.33,47.51,11.31,21.45-1.29,34.88-12.18,39.06-34.44,1.45-7.74.81-15.46.93-24-7.1,4.54-13.59,8.66-20.74,11.47-22.66,8.95-44.73,9.25-65.13-5.81-15.29-11.28-24-27.15-28.56-45.2-8.47-33.88-5.27-66.26,15.9-95,11.91-16.19,28.1-26,48.8-28,19.78-1.88,37.28,2.88,52.71,15.36A38.89,38.89,0,0,0,1587.17,340.18Zm-6.29,71.56c0-13.32-.19-26.65.11-40,.09-4.08-1.3-5.88-5-7-8-2.5-15.88-4.57-24.38-5.08-14.62-.88-27.16,5.31-33.75,18.38-10.21,20.23-10.65,41.37-4.16,62.55,5.31,17.32,18.12,25.94,35.86,25.23,10.33-.41,20-4.08,29.43-8,2.54-1.05,1.89-3.23,1.9-5.11Q1580.9,432.23,1580.88,411.74Z"/><path class="cls-2" d="M240.29,444c18.08,10.07,37.65,15.31,57.73,18.66,11.61,1.93,23.46,2.25,35-.94,9.88-2.75,18.38-7.86,20.85-18.74,2.82-12.4-3-21.27-12.9-28.12-12.55-8.71-27.26-12.46-41.23-17.86-16.92-6.53-34.42-11.8-48.92-23.31-14.14-11.23-22.52-25.41-22.88-44-.38-19,5.62-35.23,19.85-48.06,10.49-9.44,23.14-14.86,36.74-17.67,36.7-7.6,71.55-1.37,104.91,15,3.2,1.57,4.27,3.17,2.41,6.79-4.79,9.35-9.28,18.86-13.61,28.44-1.21,2.68-2.29,2.92-4.76,1.73-15.13-7.29-31-13-47.62-14.6-13.65-1.34-27.77-1.9-40.06,6.86-9.87,7-11.1,20.47-2.69,29.33,8.87,9.35,20.81,12.72,32.19,17.36,16.06,6.56,33.11,10.54,48.49,18.92,13,7.1,24.25,16.15,32.2,28.73,7.83,12.38,9.57,26.24,7.46,40.43-4.91,32.94-27.11,49-57.06,56.86a124,124,0,0,1-36.23,4,199.37,199.37,0,0,1-83.77-22c-2.78-1.42-2.8-2.79-1.53-5.37C230.08,465.7,235.12,454.87,240.29,444Z"/><path class="cls-2" d="M426.9,415.2c-.34-22.51,3.87-41.55,15.59-58.51,13-18.83,31.29-29,53.56-32.87,17.43-3,34.64-2.24,51.27,3.56,26.69,9.29,43.49,28.06,50.71,55.39,6.35,24.05,5.79,47.84-3.53,71-9.82,24.37-27.85,39.87-53.28,46.39-24,6.16-47.52,4.91-70-6.23-23.71-11.74-36.65-31.57-42.22-56.81C427.21,429.18,426.37,421.14,426.9,415.2Zm47-2.29c-.2,6.35,1,12.53,2.07,18.72,3,16.7,13.1,33.49,34.48,34.59,18,.93,31.57-5,38.3-21.58,7.6-18.71,7.73-38,2.11-57.23-4.67-16-14.07-27.19-34.37-27.88-16.67-.57-29.64,5.41-36.81,22.58C475.55,392,474.41,402.38,473.92,412.91Z"/><path class="cls-2" d="M1168.44,499.85c-13.74,0-27.23-.07-40.72,0-4,0-3.17-3.11-3.72-5.11-1.17-4.19-.7-8.76-2.71-13.28-9,7.5-18.6,13.47-29.54,16.8-18.17,5.53-36,5.93-52.48-5.38-12.28-8.42-18.12-20.55-20.49-35a55.64,55.64,0,0,1,3.67-32c7.07-16.13,20.44-24.95,37-29,16.74-4.08,33.7-4,50.67-1.25,2.44.39,5-.16,7.36.83,3.46-19.87-11.69-35.71-30.6-36.85-15.58-1-29.72,2.93-43.24,9.93-3.87,2-5.72,2.42-7.37-2.64-2.69-8.22-6.33-16.15-9.84-24.08-1.22-2.75-.85-4.23,1.78-5.66a122.08,122.08,0,0,1,41-13.4,131.69,131.69,0,0,1,33.19-1c30.18,3.19,55,20.55,60.61,53.61,1.85,10.9,1.89,21.79,1.89,32.74,0,17,.1,34,0,51A217.34,217.34,0,0,0,1168.44,499.85Zm-49.54-59.62v-10c0-7,0-6.95-7.1-7.42-1.15-.07-2.27-.5-3.42-.57-12.3-.8-24.52-.62-35.51,5.89-9.33,5.54-12.5,17.15-8.32,28.44,3.46,9.33,13.42,12.28,22.43,11.88,9.4-.41,17.87-4,26.06-8.52,4-2.21,6.89-4.48,6-9.76C1118.44,447,1118.9,443.55,1118.9,440.23Z"/><path class="cls-2" d="M1434.81,499.85c-14,0-27.51,0-41,0-2,0-2.74-.58-3.1-2.72-.68-4.06-1.66-8.05-2-12.19-.12-1.77-.48-4.57-3.58-2a77.91,77.91,0,0,1-39.84,18.07c-14.46,2.08-28,.3-40.09-8.2-12.52-8.8-18.47-21.31-20.52-36.32a57.37,57.37,0,0,1,2.55-27.26c6.31-17.86,20.12-27.7,37.82-32.17,16.86-4.26,34-4.22,51.17-1.38,1.79.3,3.78-.05,5.4.6,2.57,1,3-.22,3-2.17-.41-18.05-9.59-31.89-30.39-34.31-16.44-1.91-31.36,3-45.66,10.23-3.51,1.78-4.51,1-5.73-2.17-3.37-8.73-6.83-17.42-10.56-26-1-2.22-.41-3.07,1.33-4.08,12.87-7.48,26.82-11.75,41.46-13.92a135.84,135.84,0,0,1,32.19-1.13c30.68,2.78,56,20.08,61.7,52.89a124.57,124.57,0,0,1,1.93,21.72c-.1,22.32-.38,44.65.11,67C1431.26,476.05,1431.79,487.81,1434.81,499.85ZM1384.88,440c0-4.49-.13-9,0-13.46.12-2.84-1-3.58-3.73-3.77-8.75-.61-17.45-1.55-26.22,0-9.28,1.64-18.25,3.77-23.19,12.93-7.28,13.5-.79,31,15.63,32.38,10.38.88,19.33-2.33,28.46-6.28,7-3,10.66-7.41,9.06-15.34C1384.53,444.42,1384.88,442.19,1384.88,440Z"/><path class="cls-2" d="M864.72,499.86c-14,0-27.76,0-41.57,0-1.75,0-2-.82-2.35-2.34a82.93,82.93,0,0,1-2-12.16c-.18-2.34-.65-4.66-4.12-1.86-15.67,12.69-33.51,19.67-53.88,18.26-25.22-1.75-42.58-19.38-46-44.07-1.53-11-.66-21.55,3.66-31.52,7.08-16.33,20.6-25.09,37.38-29.3,18.46-4.63,37-3.3,55.59-.69,2.06.29,2.47.34,2.71-1.7,2.06-17.33-12.22-33.43-29.73-34.74-16.06-1.2-30.68,2.69-44.67,9.88-3.77,1.93-5.67,2.53-7.35-2.53-2.84-8.53-6.64-16.75-10.16-25.05-.9-2.13-.44-3.25,1.55-4.4,12.7-7.33,26.46-11.53,40.84-13.73a130.89,130.89,0,0,1,33.68-1.11C828.59,326,853.41,343.36,859,376a145.5,145.5,0,0,1,2,25.16c-.09,21.49-.22,43,0,64.47A165.48,165.48,0,0,0,864.72,499.86Zm-49.81-59.63v-9c0-7.77,0-7.76-7.54-8.4-.82-.07-1.62-.34-2.44-.44-11-1.36-21.86-.45-32.13,3.62a22.77,22.77,0,0,0-13.67,25.78c2.46,10.84,10.46,17.1,22.4,16.77,9.72-.27,18.59-3.72,27.12-8.38,4.44-2.44,7.19-5,6.35-10.5C814.52,446.61,814.91,443.39,814.91,440.23Z"/><path class="cls-2" d="M1799.81,413.22c.26,14.25,2.72,27.83,11.87,39.45,6.2,7.88,14.58,11.84,24.19,13.16,17.4,2.39,33.45-2.15,48.53-10.61,2.42-1.36,3.52-1.58,4.69,1.41,3.41,8.73,7.06,17.36,10.83,25.94,1.26,2.87.75,4.21-2,5.85-14.91,8.81-31,13.07-48.21,14.59-19.32,1.7-37.54-1.16-54.6-10.19-22.34-11.84-35.42-30.86-40.13-55.38s-3.56-48.82,8-71.55c12.26-24.07,32.53-37.37,58.91-42,25.43-4.47,49.2.19,71.77,12.32,3.64,2,5.45,3.48,3.26,8.06-3.61,7.53-6.39,15.47-9.43,23.26-1.29,3.29-2.33,4.83-6.48,2.55-10.42-5.74-21.44-9.71-33.64-10.5-23-1.48-40.57,11.19-45.44,33.93A77.59,77.59,0,0,0,1799.81,413.22Z"/><path class="cls-2" d="M682.81,374.94c0,39.8-.08,79.61.12,119.41,0,4.67-1.34,5.75-5.8,5.64-12.65-.31-25.32-.22-38,0-3.26,0-4.16-.86-4.16-4.16q.15-119.16,0-238.33c0-3.27.59-4.59,4.18-4.82,9.73-.65,19.42-1.88,29.14-2.69,3.14-.27,6.26-.17,9.39-.92,3.42-.81,5.28.08,5.21,4.48-.27,18.15-.11,36.31-.11,54.46Z"/><path class="cls-2" d="M1252.84,374.93c0,40-.07,79.94.1,119.91,0,4.19-1.13,5.21-5.24,5.12-12.65-.29-25.32-.19-38,0-3.17,0-4.29-.76-4.28-4.13q.13-119.42,0-238.84c0-2.88.72-4,3.77-4.25,9.73-.75,19.43-1.92,29.16-2.71a66.23,66.23,0,0,0,9.39-.94c3.44-.8,5.21.09,5.17,4.46-.25,23.82-.12,47.64-.12,71.45Z"/><path class="cls-2" d="M943.24,350c6.22-7.42,12.23-14,19.43-19.38,13.39-10,28.09-10,43.33-5.58,2.39.7,2.19,2.76,1.82,4.53-2.31,11.24-4.7,22.47-7.1,33.69-.51,2.38-1.2,3.62-4.45,2.73-16-4.34-30.93-2.13-44.76,7.48-2.78,1.93-3.63,3.73-3.62,6.78.05,38.15,0,76.3.13,114.44,0,4.07-.81,5.35-5.1,5.25-12.66-.32-25.33-.24-38,0-3.34.05-4.1-1-4.1-4.18q.15-82,0-163.92c0-3.43,1.18-4.78,4.44-5,9.24-.58,18.46-1.42,27.6-2.92,3.54-.59,6.22-.26,6.79,4.36C940.52,335.3,941.92,342.22,943.24,350Z"/><path class="cls-2" d="M1664.85,478.86c.09-15.66,9-25.65,22.19-28.05,10.28-1.87,19.69-.52,28,5.85,9.33,7.12,10.88,17.14,8.42,27.63-2.4,10.24-10.11,15.88-20,18.34A35.44,35.44,0,0,1,1679,500C1669.06,495.25,1665.1,487.05,1664.85,478.86Z"/><path class="cls-3" d="M749.2,221.57c-.42-1-.81-2.07-1.33-3.1a390,390,0,0,0-28.5-48.29c-7.24-10.28-15.14-20.1-22.84-30.05-1.19-1.53-2.43-3.94-5-1.27-2.47,2.52-.44,3.77,1.12,5.19,2.36,2.13,4,4.84,6.07,7.22a349.41,349.41,0,0,1,46,68.36c.68,1.31,1.21,2.84,2.79,3.36C748.5,223.33,749.59,223.39,749.2,221.57Zm-10.71,364c.33-.94-.12-1.32-.84-1.53a2.5,2.5,0,0,0-2.94,1.35c-1.77,2.81-3.41,5.7-5.21,8.48-11.27,17.44-23.38,34.23-37.59,49.44-2,2.18-1.45,5.53,1,5.85,2.08.27,3-1.77,4.13-3.08a418.19,418.19,0,0,0,37.77-53.66C736.15,590.12,737.31,587.74,738.49,585.53Z"/><path class="cls-4" d="M0,354.9c2.46-7.92,2.49-16.24,3.86-24.35a434.33,434.33,0,0,1,10.86-48,385.53,385.53,0,0,1,29.37-72.79A370.35,370.35,0,0,1,78,156.54c4.43-5.78,9.28-11.24,13.6-17.1,1.8-2.45,2.77-2,4.52-.21q9.24,9.45,18.68,18.71c1.87,1.84,2.12,3.2.35,5.44A367.59,367.59,0,0,0,41,334.23c-1.24,8.34-3,16.62-2.94,25.1,0,3.4-1.95,3.64-4.55,3.63-11.16-.07-22.33,0-33.49-.06Z"/><path class="cls-5" d="M0,423.88c11.16,0,22.33.07,33.49-.05,3,0,4.44.54,4.61,4,.84,17.76,4.16,35.19,8.25,52.43A372.08,372.08,0,0,0,73.9,557.43a380.74,380.74,0,0,0,40.93,65.73c1.89,2.45,1.92,3.72-.17,5.75-6.17,6-12.31,12.13-18.26,18.38-2.22,2.34-3.05,2-5.16-.43-15.89-18.39-29.33-38.46-41.41-59.48A386,386,0,0,1,18,515.14,409.28,409.28,0,0,1,2.16,445.39c-.65-4.52-.59-9.14-2.16-13.51Z"/><path class="cls-6" d="M348,786.78c-3.41-2-7.39-2.27-11.08-2.85a438,438,0,0,1-65.7-15.53c-33.44-10.65-64.52-26-93.91-44.89a380.89,380.89,0,0,1-37.76-28.13c-2.22-1.85-1.9-2.83-.07-4.6,5.49-5.28,11.07-10.51,16.11-16.2,2.94-3.33,4.9-2.74,7.64-.14,10.63,10.08,22.34,18.82,34.29,27.24A359.19,359.19,0,0,0,255.64,735,382.88,382.88,0,0,0,348,763.5c2.45.43,4.9.82,7.35,1.21,7.65,1.22,7.65,1.22,7.65,9.08q0,6.5,0,13Z"/><path class="cls-7" d="M363,0c0,5.66-.18,11.33.06,17,.15,3.53-1.56,4.67-4.65,5-15.33,1.78-30.27,5.39-45.2,9.29-46,12-87.6,32.92-125.71,61-8.53,6.29-16.54,13.31-24.64,20.18-2.55,2.16-4.25,2.87-6.94,0-5.42-5.82-11.28-11.23-16.95-16.83-1.37-1.36-1.67-2.24.27-3.86a411.91,411.91,0,0,1,64.64-44.28,386.29,386.29,0,0,1,71.66-30.67,355.18,355.18,0,0,1,69.9-15C348.59,1.53,352,1.53,355,0Z"/><path class="cls-8" d="M424,786.78c0-4.66.12-9.33,0-14-.12-3.1.81-4.27,4.17-4.5,9.92-.67,19.85-1.08,29.78-2.31a381.15,381.15,0,0,0,60.73-12.59A368.48,368.48,0,0,0,582.21,728a374.82,374.82,0,0,0,59.5-37.77c2.95-2.29,4.25-2.43,6.68.39,2.94,3.4-.25,4.51-1.84,5.8a419.15,419.15,0,0,1-49.89,35.41,401.52,401.52,0,0,1-76,35.33,392.94,392.94,0,0,1-66.59,16.3c-8.32,1.31-16.78,1.83-25.1,3.29Z"/><path class="cls-9" d="M429,0c8.85,1.29,17.7,2.61,26.56,3.87,17.29,2.45,34.15,6.67,50.93,11.46,27.24,7.76,53,19,77.8,32.5A398.42,398.42,0,0,1,647.39,91c1.37,1.13,3.81,2.48,1.33,4.75-1.81,1.65-3,4-6.49,1.34a364.79,364.79,0,0,0-123-63.42C496,26.8,472.33,21.88,448.13,19.92c-7-.57-13.9-1.42-20.86-1.82-2.69-.15-3.41-1.13-3.35-3.61.13-4.83,0-9.66,0-14.49Z"/><path class="cls-10" d="M749.2,221.57c.39,1.82-.7,1.76-1.72,1.42-1.58-.52-2.11-2.05-2.79-3.36a349.41,349.41,0,0,0-46-68.36c-2-2.38-3.71-5.09-6.07-7.22-1.56-1.42-3.59-2.67-1.12-5.19,2.62-2.67,3.86-.26,5,1.27,7.7,10,15.6,19.77,22.84,30.05a390,390,0,0,1,28.5,48.29C748.39,219.5,748.78,220.6,749.2,221.57Z"/><path class="cls-11" d="M738.49,585.53c-1.18,2.21-2.34,4.59-3.69,6.85A418.19,418.19,0,0,1,697,646c-1.09,1.31-2,3.35-4.13,3.08-2.44-.32-3-3.67-1-5.85,14.21-15.21,26.32-32,37.59-49.44,1.8-2.78,3.44-5.67,5.21-8.48a2.5,2.5,0,0,1,2.94-1.35C738.37,584.21,738.82,584.59,738.49,585.53Z"/></g></g></svg>